<svg xmlns="http://www.w3.org/2000/svg"  viewBox="0 0 64 64" width="64px" height="64px"><path fill="#f9dd8f" d="M32.026,59.586c-9.419,0-18.263-3.479-25.576-10.061c-0.498-0.497-0.648-1.116-0.427-1.65 c0.212-0.511,0.72-0.841,1.296-0.841c0.238,0,0.481,0.058,0.702,0.169c7.422,4.259,15.438,6.405,23.873,6.405 c6.474,0,14.014-1.497,19.677-3.907l0.053-0.023c0,0,0.12-0.034,0.152-0.041c-0.844,0.029-1.741,0.112-2.489,0.182 c-0.323,0.03-0.869,0.076-0.872,0.076c-0.844,0-1.267-0.444-1.406-0.859c-0.07-0.211-0.232-0.951,0.65-1.612 c2.037-1.506,4.633-1.73,5.999-1.73c0.554,0,3.358,0.056,4.095,1.162c0.942,1.413-0.132,7.059-3.238,9.6 c-0.234,0.241-0.619,0.408-1.016,0.408c-0.471,0-0.894-0.244-1.104-0.637c-0.195-0.364-0.182-0.798,0.031-1.179 c0.369-0.888,0.655-1.648,0.875-2.293c-0.01,0.007-0.019,0.014-0.029,0.021C47.76,56.846,39.217,59.586,32.026,59.586z M52.637,49.629c0.547,0.119,1.017,0.473,1.262,0.956c0.068-0.388,0.077-0.642,0.056-0.784 C53.824,49.748,53.468,49.647,52.637,49.629z"/><path fill="#8d6c9f" d="M53.659,46.625c1.69,0,3.06,0.358,3.32,0.747c0.531,0.796-0.133,5.973-3.053,8.362 c-0.139,0.139-0.294,0.197-0.425,0.197c-0.246,0-0.411-0.203-0.238-0.462c0.664-1.593,2.124-5.309,1.46-6.238 c-0.294-0.412-1.24-0.537-2.352-0.537c-1.398,0-3.058,0.197-4.019,0.271c-0.531,0-0.664-0.398-0.133-0.796 C49.779,47.016,51.893,46.625,53.659,46.625 M7.318,47.966c0.091,0,0.188,0.022,0.286,0.071C14.771,52.151,22.868,55,31.893,55 c6.106,0,13.804-1.787,20.042-4.442c0.1-0.029,0.198-0.042,0.293-0.042c0.787,0,1.333,0.909,0.503,1.502 c-5.575,4.115-13.937,7.118-20.706,7.118c-9.689,0-18.317-4.331-24.953-10.304C6.64,48.399,6.914,47.966,7.318,47.966 M53.659,44.761c-1.481,0-4.301,0.248-6.548,1.908c-1.107,0.83-1.233,1.917-0.985,2.66c0.145,0.436,0.421,0.798,0.785,1.057 c-4.765,1.442-10.192,2.749-15.017,2.749c-8.27,0-16.13-2.565-23.361-6.716l-0.046-0.027l-0.048-0.024 c-0.35-0.175-0.737-0.267-1.119-0.267c-0.954,0-1.8,0.556-2.157,1.417c-0.368,0.889-0.141,1.897,0.594,2.632l0.035,0.035 l0.036,0.033C13.207,56.86,22.511,61,32.026,61c6.383,0,13.811-2.59,19.371-5.874c-0.137,0.516-0.08,1.059,0.178,1.54 c0.373,0.696,1.111,1.129,1.926,1.129c0.609,0,1.195-0.235,1.662-0.665c3.374-2.818,4.603-8.938,3.367-10.792 C57.615,44.966,55.086,44.761,53.659,44.761L53.659,44.761z"/><g><path fill="#8a8e99" d="M43.006,47.693c-0.399,0-0.806-0.098-1.176-0.283l-0.109-0.054l-0.091-0.081 c-1.934-1.706-2.67-2.778-3.539-4.146c-3.594,3.353-6.627,4.511-11.506,4.511c-6.961,0-11.285-4.528-11.285-11.816 c0-5.643,2.916-10.116,8.001-12.272c3.615-1.549,7.802-1.659,11.909-1.666v-3.051c0-2.964-2.976-3.05-3.315-3.05 c-1.169,0-3.949,0.327-4.526,3.357c-0.254,1.27-1.082,2.085-2.11,2.085h-0.055l-6.883-0.81l-0.058-0.015 c-1.24-0.31-1.93-1.29-1.758-2.496c1.493-7.722,7.239-11.949,16.186-11.949c1.695,0,7.506,0.268,11.128,3.707 c3.608,3.464,3.608,7.912,3.608,12.621v11.016c0,2.769,1.012,4.07,2.183,5.577l0.278,0.359c0.39,0.486,0.615,1.034,0.64,1.569 c0.032,0.671-0.251,1.281-0.797,1.718c-1.038,0.85-2.863,2.447-5.268,4.611C44.117,47.483,43.587,47.693,43.006,47.693 L43.006,47.693z M35.076,29.068c-5.292,0.108-8.755,1.219-8.755,5.695c0.003,0.308,0.117,3.05,3.05,3.05 c5.056,0,5.704-4.396,5.704-8.226V29.068z"/><path fill="#8d6c9f" d="M32.69,6.89c3.451,0,7.474,0.929,10.128,3.451c3.318,3.186,3.318,7.3,3.318,11.946v11.016 c0,3.318,1.685,4.778,3.012,6.504c0.531,0.664,0.664,1.46,0,1.991c-1.46,1.195-3.982,3.451-5.309,4.645 c-0.219,0.219-0.519,0.318-0.833,0.318c-0.256,0-0.522-0.066-0.76-0.185c-2.256-1.991-2.787-3.053-3.982-4.911 c-3.849,3.849-6.769,5.044-11.68,5.044c-5.84,0-10.353-3.584-10.353-10.884c0-5.707,3.053-9.556,7.433-11.415 c3.716-1.593,8.229-1.593,12.476-1.593v-3.982c0-3.185-2.787-3.982-4.247-3.982c-2.655,0-4.911,1.327-5.442,4.115 c-0.133,0.664-0.531,1.327-1.195,1.327l-6.769-0.796c-0.531-0.133-1.195-0.531-1.062-1.46C19.019,9.81,25.39,6.89,32.69,6.89 M29.372,38.745c6.504,0,6.636-6.504,6.636-9.158v-1.46c-5.044,0-10.932,0.977-10.932,6.95 C25.076,35.076,25.39,38.745,29.372,38.745 M32.69,5.026c-9.443,0-15.514,4.496-17.094,12.659l-0.009,0.045l-0.006,0.045 c-0.241,1.685,0.746,3.105,2.455,3.532l0.116,0.029l0.119,0.014l6.312,0.743c-0.562,0.174-1.114,0.374-1.652,0.604 c-5.439,2.308-8.562,7.093-8.562,13.128c0,7.744,4.795,12.748,12.217,12.748c4.713,0,7.891-1.086,11.32-4.027 c0.705,1.03,1.54,2.044,3.109,3.428l0.182,0.161l0.217,0.109c0.5,0.25,1.051,0.382,1.594,0.382c0.808,0,1.554-0.291,2.107-0.821 c2.377-2.139,4.18-3.717,5.215-4.564c1.39-1.112,1.513-3.051,0.275-4.598l-0.259-0.335C49.191,36.824,48,35.752,48,33.303V22.287 c0-4.913,0-9.554-3.891-13.29C40.23,5.312,34.472,5.026,32.69,5.026L32.69,5.026z M28.279,19.334 c0.434-2.279,2.451-2.616,3.614-2.616c0.559,0,2.383,0.153,2.383,2.118v2.123c-2.367,0.019-4.842,0.109-7.216,0.538 C27.061,21.497,28.097,20.248,28.279,19.334z M29.372,36.881c-1.965,0-2.431-1.308-2.431-1.805c0-2.675,1.52-4.74,7.2-5.04 C34.061,34.891,32.662,36.881,29.372,36.881L29.372,36.881z"/></g></svg>